<?xml version="1.0" encoding="utf-8"?>
<!-- Generator: Adobe Illustrator 26.3.1, SVG Export Plug-In . SVG Version: 6.00 Build 0)  -->
<svg version="1.1" id="Слой_1" xmlns="http://www.w3.org/2000/svg" xmlns:xlink="http://www.w3.org/1999/xlink" x="0px" y="0px"
	 viewBox="0 0 468.25 464.12" style="enable-background:new 0 0 468.25 464.12;" xml:space="preserve">
<g>
	<path d="M37.83,245.3c-12.53-5.05-25.16-10.13-37.79-15.22c-0.01-0.69-0.03-1.37-0.04-2.06c12.67-4.7,25.34-9.41,37.8-14.03
		c12.24-100.76,83.69-169.7,183.87-177.39c3.92-11.4,7.91-22.98,12.59-36.59c5.3,13.49,9.83,25.01,14.35,36.5
		c36.45,4.65,75.66,14.45,119.78,51.55c7.39-2.29,15.06-4.66,23.7-7.33c-1.81,7.48-3.9,14.33-4.98,21.35
		c-0.48,3.1-0.01,7.35,1.83,9.65c21.92,27.45,37.59,66.28,40.39,101.71c12.82,4.78,25.83,9.64,38.84,14.49
		c0.03,0.72,0.05,1.43,0.08,2.15c-12.96,5-25.92,9.99-39.17,15.1c-3.37,41.13-18.76,77.6-43.77,110.1c2.53,7.83,5.03,15.6,8.3,25.74
		c-8.56-3-14.86-5.55-21.38-7.31c-2.34-0.63-5.99-0.31-7.7,1.15c-28.49,24.36-60.9,40.47-97.86,47.22
		c-0.16,0.03-0.32,0.19-0.46,0.17c-13.62-1.66-17.74,7.16-20.66,18.04c-1.94,7.24-5.01,14.19-8.5,23.85
		c-5.5-14.6-10.14-26.89-14.88-39.48c-46.62-4.48-88.05-21.26-122.8-52.64c-8.49,3.17-16.42,6.13-26.7,9.96
		c3.54-10.64,6.35-19.11,9.24-27.8C56.43,322.7,41.02,286.87,37.83,245.3z M404.18,229.99c0.7-92.86-73.33-162.93-159.73-167.77
		c-101.71-5.69-175.62,71.35-180.98,156.2C56.83,323.38,139.71,392.4,223.4,398.28C326.93,405.56,405.54,320.09,404.18,229.99z"/>
	<path d="M139.96,296.73c0-41.08,0-81.93,0-124.49c6.77,1.49,13.02,2.87,18.66,4.12c10.08-10.59,10.9-23.84,10.37-38.09
		c-3.83-1.74-8.14-3.38-12.12-5.62c-2.2-1.24-5.55-3.77-5.32-5.24c0.37-2.39,2.82-5.28,5.15-6.41c14.98-7.3,30.16-14.21,45.3-21.18
		c9.75-4.48,19.52-8.95,29.4-13.13c1.8-0.76,4.52-0.79,6.28,0.01c24.65,11.24,49.24,22.61,73.72,34.2c2.04,0.96,4.25,3.64,4.46,5.71
		c0.16,1.59-2.36,4.18-4.28,5.14c-10.32,5.15-20.82,9.94-31.04,14.75c-0.48,7.7-0.94,14.98-1.43,22.88
		c-3.35,1.07-6.92,2.1-10.4,3.36c-9.75,3.52-19.69,6.64-29.09,10.93c-4.58,2.09-7.83,1.73-12.31,0.08
		c-12.33-4.52-24.97-8.18-38.32-12.45c-0.39-7.44-0.83-15.68-1.28-24.39c-2.96-1.28-6.24-2.7-9.54-4.12
		c-6.31,13.58,2.15,24.97,5.16,37.04c14.44,5.24,29.09,10.81,43.94,15.76c3.51,1.17,7.93,1.09,11.56,0.14
		c27.79-7.31,55.48-15,83.23-22.46c1.61-0.43,3.49,0.12,5.52,0.23c0,41.52,0,82.53,0,123.32c-16.3,3.32-32.72,5.72-48.58,10.15
		c-15.67,4.38-30.76,10.81-44.74,15.85c-15.56-5.67-30.59-12.21-46.24-16.54C172.33,301.95,156.01,299.83,139.96,296.73z
		 M254.52,234.06c4.28,11.04,13.3,16.29,24.94,14.72c10.21-1.38,17.26-8.83,17.9-18.9c0.74-11.64-4.51-19.97-15.01-22.62
		c-11.67-2.95-22.97,1.82-28.89,17.14c-20.8,0-41.99,0-65.09,0c7.37,19.31-4.14,29.26-16.61,38.75c-0.26,0.2-0.61,0.51-0.61,0.76
		c0.02,2.84-1.06,6.72,0.38,8.32c5.55,6.14,11.98,11.49,17.97,17.25c5.33,5.12,10.1,5.66,14.68-0.96c2.55-3.68,5.07-7.55,8.38-10.46
		c2.66-2.34,6.4-4.56,9.79-4.78c9.75-0.63,19.57-0.22,28.75-0.22c1.55,1.67,2.43,2.95,3.6,3.83c5.1,3.86,10.36,4.25,15.41-0.02
		c4.33-3.65,4.09-8.08,1.31-12.48c-3.57-5.66-8.49-6.51-14.69-4.36c-4.77,1.65-9.84,2.93-14.85,3.29
		c-7.45,0.53-14.97,0.13-22.46,0.08c-1.3-0.01-2.78,0.13-3.88-0.42c-9-4.48-15.5-18.32-13.56-28.93
		C219.37,234.06,236.8,234.06,254.52,234.06z M159.86,181.13c-0.25-0.03-0.51-0.07-0.76-0.1c0.14,0.87,0.29,1.73,0.76,4.57
		C159.86,182.76,159.86,181.95,159.86,181.13z M178.69,197.53c0.12,0.12,0.24,0.24,0.37,0.36c0.46-0.48,0.92-0.96,1.37-1.44
		c-0.16-0.16-0.32-0.32-0.48-0.47C179.53,196.5,179.11,197.02,178.69,197.53z M297.06,182.21c0.13-0.14,0.27-0.28,0.4-0.41
		c-0.3-0.32-0.6-0.64-0.9-0.96c-0.11,0.12-0.23,0.24-0.34,0.35C296.5,181.52,296.78,181.86,297.06,182.21z M183.7,185.86
		c0.09-0.01,0.19-0.02,0.28-0.03c-0.04-0.43-0.08-0.85-0.13-1.28c-0.09,0.08-0.25,0.16-0.25,0.24
		C183.61,185.15,183.66,185.51,183.7,185.86z M161.75,192.29C162.25,192.29,162,192.29,161.75,192.29
		C161.99,192.38,162.23,192.48,161.75,192.29z M320.84,179.76l-0.05,0.32l0.3-0.08L320.84,179.76z M267.16,195.46l0.17,0.25
		l0.12-0.24L267.16,195.46z M169.65,200.52c0.11-0.06,0.21-0.12,0.32-0.19c-0.09-0.09-0.16-0.23-0.26-0.24
		c-0.1-0.01-0.22,0.1-0.32,0.16C169.48,200.34,169.57,200.43,169.65,200.52z M165.52,212.17l0.26,0.15l0.04-0.23L165.52,212.17z"/>
	<path d="M348.44,319.19c-32.19,7.29-63.21,14.3-94.21,21.4c-1.67,0.38-3.64,1.14-4.67,2.39c-6.07,7.3-18.58,10.44-27.24,6.55
		c-0.59-0.27-1.43-0.53-1.63-1.02c-5.17-12.07-17.13-11.72-27.06-13.96c-23.66-5.33-47.56-9.57-72.79-14.54
		c-0.26-0.99-1.55-3.61-1.56-6.23c-0.12-44.43-0.09-88.85-0.09-134.91c3.72,0.56,7.03,1.05,10.55,1.58c0,42.67,0,84.37,0,125.85
		c18.38,3.11,36.59,5.29,54.34,9.45c17.44,4.09,35.79,7.09,48.54,21.19c30.85-24.27,68.18-25.46,105.38-30.29c0-1.45,0-3.36,0-5.28
		c0-37.28,0.15-74.56-0.13-111.84c-0.05-6.63,1.13-11.09,9.57-11.55c0.48,1.96,1.58,4.36,1.58,6.76
		c0.11,43.26,0.09,86.52,0.05,129.78C349.07,316.64,348.51,318.73,348.44,319.19z"/>
	<path d="M286.93,227.84c0.03,5.9-4.64,10.54-10.71,10.64c-5.94,0.1-10.85-4.72-10.77-10.56c0.09-6.08,4.77-10.97,10.51-10.98
		C282.34,216.92,286.9,221.45,286.93,227.84z"/>
	<path d="M206.45,268.7c-3.38,3.81-6.45,7.27-10.08,11.37c-4.44-4-8.67-7.81-13.28-11.97c4.24-3.78,8.17-7.28,12.53-11.17
		C199.19,260.83,202.61,264.54,206.45,268.7z"/>
</g>
</svg>
